<svg width="28" height="28" viewBox="0 0 28 28" fill="none" xmlns="http://www.w3.org/2000/svg">
<g opacity="0.5">
<path d="M26.8333 24.85H26.4833V22.1667C26.4833 21 25.55 20.0667 24.3833 20.0667H24.0333V13.65H24.5C25.6667 13.65 26.6 12.7167 26.6 11.55V7.81667C26.6 7 26.0167 6.18333 25.3167 5.95L14.8167 1.75C14.35 1.51667 13.7667 1.51667 13.3 1.75L2.8 5.95C1.98334 6.18333 1.51667 7 1.51667 7.81667V11.6667C1.51667 12.8333 2.45 13.7667 3.61667 13.7667H3.96667V20.1833H3.5C2.33334 20.1833 1.4 21.1167 1.4 22.2833V24.9667H1.16667C0.700004 24.9667 0.233337 25.3167 0.233337 25.9C0.233337 26.4833 0.583337 26.8333 1.16667 26.8333H2.33334H25.6667H26.8333C27.3 26.8333 27.7667 26.4833 27.7667 25.9C27.7667 25.3167 27.3 24.85 26.8333 24.85ZM22.5167 20.1833H19.6V13.7667H22.5167V20.1833ZM14.9333 20.1833V13.7667H17.85V20.1833H14.9333ZM10.2667 20.1833V13.7667H13.1833V20.1833H10.2667ZM3.26667 11.6667V7.81667C3.26667 7.7 3.38334 7.58333 3.5 7.58333L14 3.38333H14.1167H14.2333L24.7333 7.58333C24.85 7.58333 24.9667 7.81667 24.9667 7.81667V11.6667C24.9667 11.7833 24.85 12.0167 24.6167 12.0167H3.5C3.38334 12.0167 3.26667 11.7833 3.26667 11.6667ZM5.6 13.7667H8.51667V20.1833H5.6V13.7667ZM3.26667 24.85V22.1667C3.26667 22.05 3.38334 21.8167 3.61667 21.8167H24.6167C24.7333 21.8167 24.9667 21.9333 24.9667 22.1667V24.85H3.26667Z" fill="#777AAE"/>
<path d="M14 10.85C15.4 10.85 16.6833 9.68333 16.6833 8.16667C16.6833 6.65 15.5167 5.48333 14 5.48333C12.6 5.48333 11.3167 6.65 11.3167 8.16667C11.3167 9.68333 12.6 10.85 14 10.85ZM14 7.35C14.4667 7.35 14.9333 7.7 14.9333 8.28333C14.9333 8.86667 14.4667 9.1 14 9.1C13.5333 9.1 13.1833 8.63333 13.1833 8.16667C13.1833 7.7 13.5333 7.35 14 7.35Z" fill="#777AAE"/>
</g>
</svg>
