<svg width="28" height="28" viewBox="0 0 28 28" fill="none" xmlns="http://www.w3.org/2000/svg">
<g opacity="0.5">
<path d="M22.1667 10.2083C19.7517 10.2083 17.7917 8.24833 17.7917 5.83333C17.7917 3.41833 19.7517 1.45833 22.1667 1.45833C24.5817 1.45833 26.5417 3.41833 26.5417 5.83333C26.5417 8.24833 24.5817 10.2083 22.1667 10.2083ZM22.1667 3.20833C20.72 3.20833 19.5417 4.38667 19.5417 5.83333C19.5417 7.28 20.72 8.45833 22.1667 8.45833C23.6133 8.45833 24.7917 7.28 24.7917 5.83333C24.7917 4.38667 23.6133 3.20833 22.1667 3.20833Z" fill="#777AAE"/>
<path d="M17.5 26.5417H10.5C4.165 26.5417 1.45833 23.835 1.45833 17.5V10.5C1.45833 4.165 4.165 1.45833 10.5 1.45833H16.3333C16.8117 1.45833 17.2083 1.855 17.2083 2.33333C17.2083 2.81167 16.8117 3.20833 16.3333 3.20833H10.5C5.12167 3.20833 3.20833 5.12167 3.20833 10.5V17.5C3.20833 22.8783 5.12167 24.7917 10.5 24.7917H17.5C22.8783 24.7917 24.7917 22.8783 24.7917 17.5V11.6667C24.7917 11.1883 25.1883 10.7917 25.6667 10.7917C26.145 10.7917 26.5417 11.1883 26.5417 11.6667V17.5C26.5417 23.835 23.835 26.5417 17.5 26.5417Z" fill="#777AAE"/>
</g>
</svg>
