<svg width="24" height="24" viewBox="0 0 24 24" fill="none" xmlns="http://www.w3.org/2000/svg">
<circle cx="12" cy="12" r="12" fill="#FF1B6F"/>
<g clip-path="url(#clip0_23_406)">
<path d="M15.2912 12.2893H16.6974V15.6562H15.2912V12.2893Z" fill="white"/>
<path d="M12.6279 12.2893H14.0342V15.6562H12.6279V12.2893Z" fill="white"/>
<path d="M9.96582 12.2893H11.3721V15.6562H9.96582V12.2893Z" fill="white"/>
<path d="M7.30261 12.2893H8.70877V15.6562H7.30261V12.2893Z" fill="white"/>
<path d="M17.1662 11.2346V10.8831H6.83386V11.2346C6.83386 11.4288 6.99124 11.5862 7.18542 11.5862H16.8147C17.0088 11.5862 17.1662 11.4288 17.1662 11.2346Z" fill="white"/>
<path d="M17.6479 16.3594H6.35156C6.15738 16.3594 6 16.5168 6 16.7109V17.6484C6 17.8426 6.15738 18 6.35156 18H17.6479C17.8421 18 17.9994 17.8426 17.9994 17.6484V16.7109C17.9994 16.5168 17.8421 16.3594 17.6479 16.3594Z" fill="white"/>
<path d="M6.35158 10.1799H17.6484C17.8057 10.1799 17.9439 10.0755 17.9867 9.92413C18.0295 9.77279 17.9667 9.61139 17.8327 9.52899L12.1843 6.05219C12.0713 5.9826 11.9288 5.9826 11.8157 6.05219L6.16728 9.52899C6.03334 9.61148 5.97053 9.77279 6.01338 9.92413C6.05623 10.0755 6.19438 10.1799 6.35158 10.1799ZM11.7611 8.06781H12.2391C12.4332 8.06781 12.5906 8.22519 12.5906 8.41937C12.5906 8.61355 12.4332 8.77093 12.2391 8.77093H11.7611C11.5669 8.77093 11.4095 8.61355 11.4095 8.41937C11.4095 8.22519 11.5669 8.06781 11.7611 8.06781Z" fill="white"/>
</g>
<defs>
<clipPath id="clip0_23_406">
<rect width="12" height="12" fill="white" transform="translate(6 6)"/>
</clipPath>
</defs>
</svg>
