<svg width="24" height="24" viewBox="0 0 24 24" fill="none" xmlns="http://www.w3.org/2000/svg">
<circle cx="12" cy="12" r="12" fill="#FF1B6F"/>
<path d="M14.8047 17.0712C14.5347 17.1762 13.6797 17.4262 13.2897 17.2037C13.2359 17.1725 13.1905 17.1286 13.1574 17.0759C13.1243 17.0232 13.1045 16.9633 13.0997 16.9012C12.9772 16.1212 13.5597 14.3187 13.8747 13.3512C13.9797 13.0287 14.0547 12.7937 14.0847 12.6512C14.3122 11.5987 14.1997 10.7937 13.7497 10.2587C13.2083 9.61506 12.2476 9.48983 11.4597 9.60623C10.6584 9.71303 9.87541 9.92834 9.13219 10.2462C9.09766 10.2629 9.06748 10.2874 9.04405 10.3178C9.02062 10.3482 9.00458 10.3836 8.99719 10.4212L8.83469 11.1987C8.82591 11.2425 8.82893 11.2877 8.84342 11.3299C8.85792 11.3721 8.88338 11.4096 8.91719 11.4387C8.95143 11.4672 8.99245 11.4863 9.03626 11.4942C9.08007 11.502 9.12518 11.4985 9.16719 11.4837C9.46469 11.3737 10.3947 11.1262 10.7272 11.4312C10.9147 11.6037 10.8622 11.9687 10.7872 12.2412C10.7097 12.5262 10.6172 12.8337 10.5222 13.1562C9.9072 15.2487 9.2072 17.6212 10.3172 18.3612C10.8424 18.7622 11.4816 18.9855 12.1422 18.9987C12.7922 18.9987 13.5947 18.7937 14.7497 18.3262C14.7845 18.3127 14.8158 18.2915 14.8414 18.2643C14.8669 18.237 14.886 18.2044 14.8972 18.1687L15.1347 17.3762C15.1482 17.3311 15.1487 17.283 15.1364 17.2375C15.124 17.192 15.0992 17.1509 15.0647 17.1187C15.0302 17.0872 14.9875 17.0659 14.9415 17.0575C14.8955 17.0491 14.8481 17.0539 14.8047 17.0712Z" fill="white"/>
<path d="M13.3597 5.00124C13.0021 5.00148 12.6525 5.10774 12.3553 5.30659C12.058 5.50543 11.8264 5.78793 11.6896 6.11838C11.5529 6.44884 11.5172 6.81242 11.587 7.16316C11.6568 7.51391 11.8291 7.83608 12.082 8.08896C12.3349 8.34185 12.657 8.51409 13.0078 8.58392C13.3585 8.65375 13.7221 8.61804 14.0526 8.48129C14.383 8.34455 14.6655 8.11291 14.8644 7.81565C15.0632 7.5184 15.1695 7.16887 15.1697 6.81124C15.1695 6.33124 14.9788 5.87096 14.6394 5.53155C14.3 5.19214 13.8397 5.0014 13.3597 5.00124Z" fill="white"/>
</svg>
