<svg width="28" height="28" viewBox="0 0 28 28" fill="none" xmlns="http://www.w3.org/2000/svg">
<g opacity="0.5">
<path d="M6.49834 26.4833C3.76834 26.4833 1.45834 24.1733 1.45834 21.4433V14.2567C1.4 10.85 2.66 7.64167 5.01667 5.23833C7.37334 2.84667 10.535 1.51667 13.9417 1.51667C20.895 1.51667 26.5417 7.175 26.5417 14.1167V21.3033C26.5417 24.08 24.2783 26.3433 21.5017 26.3433C18.7717 26.3433 16.4617 24.0333 16.4617 21.3033V18.025C16.4617 16.3333 17.7917 15.0033 19.4833 15.0033C21.175 15.0033 22.505 16.3333 22.505 18.025V21.56C22.505 22.0383 22.1083 22.435 21.63 22.435C21.1517 22.435 20.755 22.0383 20.755 21.56V18.025C20.755 17.2317 20.1133 16.7533 19.4833 16.7533C18.69 16.7533 18.2117 17.395 18.2117 18.025V21.3033C18.2117 23.0883 19.7167 24.5933 21.5017 24.5933C23.2867 24.5933 24.7917 23.0883 24.7917 21.3033V14.1167C24.7917 8.13167 19.9267 3.26667 13.9417 3.26667C11.0133 3.26667 8.295 4.39833 6.265 6.46333C4.235 8.52833 3.15 11.2933 3.20834 14.2333V21.4433C3.20834 23.2283 4.71334 24.7333 6.49834 24.7333C8.28334 24.7333 9.78834 23.2283 9.78834 21.4433V18.165C9.78834 17.3717 9.14667 16.8933 8.51667 16.8933C7.72334 16.8933 7.245 17.535 7.245 18.165V21.5717C7.245 22.05 6.84834 22.4467 6.37 22.4467C5.89167 22.4467 5.495 22.05 5.495 21.5717V18.165C5.495 16.4733 6.825 15.1433 8.51667 15.1433C10.2083 15.1433 11.5383 16.4733 11.5383 18.165V21.4433C11.5383 24.1733 9.22834 26.4833 6.49834 26.4833Z" fill="#777AAE"/>
</g>
</svg>
