<svg width="28" height="28" viewBox="0 0 28 28" fill="none" xmlns="http://www.w3.org/2000/svg">
<path fill-rule="evenodd" clip-rule="evenodd" d="M16.3217 2.95169L23.31 7.53669C24.78 8.50503 25.2583 10.255 24.7917 11.76V17.5C24.7917 17.9784 24.395 18.375 23.9167 18.375C23.4383 18.375 23.0417 17.9784 23.0417 17.5V13.93L21.4433 14.98L16.3217 18.34C15.0617 19.1684 12.985 19.1684 11.725 18.34L6.56833 14.98L4.70167 13.7667C2.45 12.2967 2.45 8.99503 4.70167 7.53669L11.725 2.95169C12.985 2.12336 15.0617 2.12336 16.3217 2.95169ZM21.4433 19.2267C21.4433 18.2934 20.4167 17.7334 19.635 18.2467L17.2667 19.7984C16.345 20.4167 15.1783 20.7201 14.0117 20.7201C12.845 20.7201 11.6783 20.4167 10.7567 19.7984L8.35333 18.2351C7.58333 17.7334 6.55667 18.2934 6.55667 19.2151V20.7317C6.55667 22.2134 7.7 23.8001 9.1 24.2667L12.8217 25.5034C13.4633 25.7251 14.525 25.7251 15.1783 25.5034L18.9 24.2667C20.2883 23.8001 21.4433 22.2134 21.4433 20.7317V19.2267Z" fill="url(#paint0_linear_76_220)"/>
<defs>
<linearGradient id="paint0_linear_76_220" x1="17.2505" y1="25.6696" x2="17.2505" y2="-15.6498" gradientUnits="userSpaceOnUse">
<stop offset="0.0373532" stop-color="#F49B1A"/>
<stop offset="0.213542" stop-color="#FF7B39"/>
<stop offset="0.40625" stop-color="#FF4E52"/>
<stop offset="0.609375" stop-color="#F80080"/>
<stop offset="0.802083" stop-color="#AC018B"/>
<stop offset="1" stop-color="#820090"/>
</linearGradient>
</defs>
</svg>
