<svg width="12" height="5" viewBox="0 0 12 5" fill="none" xmlns="http://www.w3.org/2000/svg">
<path d="M0.351577 4.17993H11.6484C11.8057 4.17993 11.9439 4.07547 11.9867 3.92413C12.0295 3.77279 11.9667 3.61139 11.8327 3.52899L6.18431 0.052185C6.07133 -0.017395 5.92878 -0.017395 5.81572 0.052185L0.167281 3.52899C0.0333396 3.61148 -0.0294656 3.77279 0.0133811 3.92413C0.0562278 4.07547 0.194381 4.17993 0.351577 4.17993ZM5.76106 2.06781H6.23906C6.43324 2.06781 6.59062 2.22519 6.59062 2.41937C6.59062 2.61355 6.43324 2.77093 6.23906 2.77093H5.76106C5.56687 2.77093 5.4095 2.61355 5.4095 2.41937C5.4095 2.22519 5.56687 2.06781 5.76106 2.06781Z" fill="#141E3C"/>
</svg>
